            <svg width="6" height="18" viewBox="0 0 6 18" xmlns="http://www.w3.org/2000/svg">
              <path
                d="M3.71831 17.3539C3.8994 17.7476 4.30986 18 4.74447 18C5.45674 18 6 17.5659 6 16.9703C6 16.6674 5.79477 16.2737 5.67404 16.0112L2.37827 8.99495L5.67404 1.97869C5.79477 1.71621 6 1.31239 6 1.01963C6 0.4341 5.45674 0 4.74447 0C4.30986 0 3.8994 0.242288 3.71831 0.636007L0.482897 7.52103C0.265594 7.98542 0 8.55076 0 8.99495C0 9.43915 0.265594 10.0045 0.482897 10.4689L3.71831 17.3539Z"
                fill="#4C5980"
              />
            </svg>