<svg width="6" height="18" viewBox="0 0 6 18" fill="none" xmlns="http://www.w3.org/2000/svg">
<path d="M2.28169 17.3539L5.5171 10.4689C5.73441 10.0045 6 9.43915 6 8.99495C6 8.55076 5.73441 7.98542 5.5171 7.52103L2.28169 0.636007C2.1006 0.242288 1.69014 0 1.24346 0C0.531187 0 0 0.4341 0 1.01963C0 1.31239 0.205231 1.71621 0.313883 1.97869L3.60966 8.99495L0.313883 16.0112C0.205231 16.2737 0 16.6674 0 16.9703C0 17.5659 0.531187 18 1.24346 18C1.69014 18 2.1006 17.7476 2.28169 17.3539Z" fill="#4C5980"/>
</svg>
