<svg width="19" height="19" viewBox="0 0 19 19" fill="none" xmlns="http://www.w3.org/2000/svg">
<path d="M4.05664 18.9531H15.9023C17.9531 18.9531 18.9688 17.9375 18.9688 15.9258V4.00195C18.9688 1.99023 17.9531 0.974609 15.9023 0.974609H4.05664C2.01562 0.974609 0.990234 1.98047 0.990234 4.00195V15.9258C0.990234 17.9473 2.01562 18.9531 4.05664 18.9531ZM4.07617 17.3809C3.09961 17.3809 2.5625 16.8633 2.5625 15.8477V4.08008C2.5625 3.06445 3.09961 2.54688 4.07617 2.54688H15.8828C16.8496 2.54688 17.3965 3.06445 17.3965 4.08008V15.8477C17.3965 16.8633 16.8496 17.3809 15.8828 17.3809H4.07617Z" fill="#DED9D3"/>
</svg>
